{
 "cells": [
  {
   "cell_type": "code",
   "execution_count": 3,
   "id": "e51c3bd4-8c45-4289-b26d-32cbbba1c802",
   "metadata": {},
   "outputs": [],
   "source": [
    "import subprocess\n",
    "#from ibm_watson import SpeechToTextV1\n",
    "#from ibm_watson.websocket import RecognizeCallback, AudioSource\n",
    "#from ibm_cloud_sdk_core.authenticators import IAMAuthenticator\n",
    "\n",
    "import ffmpeg"
   ]
  },
  {
   "cell_type": "code",
   "execution_count": 4,
   "id": "27d77232-64f2-48bc-b572-cb171c66da28",
   "metadata": {},
   "outputs": [
    {
     "name": "stderr",
     "output_type": "stream",
     "text": [
      "ffmpeg version 4.4.2-0ubuntu0.22.04.1 Copyright (c) 2000-2021 the FFmpeg developers\n",
      "  built with gcc 11 (Ubuntu 11.2.0-19ubuntu1)\n",
      "  configuration: --prefix=/usr --extra-version=0ubuntu0.22.04.1 --toolchain=hardened --libdir=/usr/lib/x86_64-linux-gnu --incdir=/usr/include/x86_64-linux-gnu --arch=amd64 --enable-gpl --disable-stripping --enable-gnutls --enable-ladspa --enable-libaom --enable-libass --enable-libbluray --enable-libbs2b --enable-libcaca --enable-libcdio --enable-libcodec2 --enable-libdav1d --enable-libflite --enable-libfontconfig --enable-libfreetype --enable-libfribidi --enable-libgme --enable-libgsm --enable-libjack --enable-libmp3lame --enable-libmysofa --enable-libopenjpeg --enable-libopenmpt --enable-libopus --enable-libpulse --enable-librabbitmq --enable-librubberband --enable-libshine --enable-libsnappy --enable-libsoxr --enable-libspeex --enable-libsrt --enable-libssh --enable-libtheora --enable-libtwolame --enable-libvidstab --enable-libvorbis --enable-libvpx --enable-libwebp --enable-libx265 --enable-libxml2 --enable-libxvid --enable-libzimg --enable-libzmq --enable-libzvbi --enable-lv2 --enable-omx --enable-openal --enable-opencl --enable-opengl --enable-sdl2 --enable-pocketsphinx --enable-librsvg --enable-libmfx --enable-libdc1394 --enable-libdrm --enable-libiec61883 --enable-chromaprint --enable-frei0r --enable-libx264 --enable-shared\n",
      "  libavutil      56. 70.100 / 56. 70.100\n",
      "  libavcodec     58.134.100 / 58.134.100\n",
      "  libavformat    58. 76.100 / 58. 76.100\n",
      "  libavdevice    58. 13.100 / 58. 13.100\n",
      "  libavfilter     7.110.100 /  7.110.100\n",
      "  libswscale      5.  9.100 /  5.  9.100\n",
      "  libswresample   3.  9.100 /  3.  9.100\n",
      "  libpostproc    55.  9.100 / 55.  9.100\n",
      "Input #0, matroska,webm, from 'BPO_14022023.mkv':\n",
      "  Metadata:\n",
      "    ENCODER         : Lavf59.27.100\n",
      "  Duration: 01:44:06.70, start: 0.000000, bitrate: 859 kb/s\n",
      "  Stream #0:0: Video: h264 (High), yuv420p(tv, bt709, progressive), 1280x720 [SAR 1:1 DAR 16:9], 30 fps, 30 tbr, 1k tbn, 60 tbc\n",
      "    Metadata:\n",
      "      DURATION        : 01:44:06.700000000\n",
      "  Stream #0:1: Audio: aac (LC), 48000 Hz, stereo, fltp\n",
      "    Metadata:\n",
      "      title           : simple_aac_recording\n",
      "      DURATION        : 01:44:06.570000000\n",
      "Stream mapping:\n",
      "  Stream #0:1 -> #0:0 (aac (native) -> pcm_s16le (native))\n",
      "Press [q] to stop, [?] for help\n",
      "Output #0, wav, to 'test.wav':\n",
      "  Metadata:\n",
      "    ISFT            : Lavf58.76.100\n",
      "  Stream #0:0: Audio: pcm_s16le ([1][0][0][0] / 0x0001), 44100 Hz, stereo, s16, 1411 kb/s\n",
      "    Metadata:\n",
      "      title           : simple_aac_recording\n",
      "      DURATION        : 01:44:06.570000000\n",
      "      encoder         : Lavc58.134.100 pcm_s16le\n",
      "size= 1076069kB time=01:44:06.57 bitrate=1411.2kbits/s speed= 294x    \n",
      "video:0kB audio:1076069kB subtitle:0kB other streams:0kB global headers:0kB muxing overhead: 0.000007%\n"
     ]
    },
    {
     "data": {
      "text/plain": [
       "0"
      ]
     },
     "execution_count": 4,
     "metadata": {},
     "output_type": "execute_result"
    }
   ],
   "source": [
    "command = 'ffmpeg -i audio-input/BPO_14022023.mkv -ab 160k -ar 44100 -vn test.wav'\n",
    "subprocess.call(command, shell=True)"
   ]
  }
 ],
 "metadata": {
  "kernelspec": {
   "display_name": "Python 3",
   "language": "python",
   "name": "python3"
  },
  "language_info": {
   "codemirror_mode": {
    "name": "ipython",
    "version": 3
   },
   "file_extension": ".py",
   "mimetype": "text/x-python",
   "name": "python",
   "nbconvert_exporter": "python",
   "pygments_lexer": "ipython3",
   "version": "3.10.6"
  },
  "vscode": {
   "interpreter": {
    "hash": "916dbcbb3f70747c44a77c7bcd40155683ae19c65e1c03b4aa3499c5328201f1"
   }
  }
 },
 "nbformat": 4,
 "nbformat_minor": 5
}
